{"title":"The Colony 2013 DVDRip 6CH AAC x264-SSDD (HQ)","uid":8722490,"size":2361582118,"categoryP":"video","categoryS":"movies","magnet":"?xt=urn:btih:23f0083ec92174f5e36eca39febf3a7b160e602b&amp;dn=The+Colony+2013+DVDRip+6CH+AAC+x264-SSDD+%28HQ%29&amp;tr=udp%3A%2F%2Ftracker.openbittorrent.com%3A80&amp;tr=udp%3A%2F%2Fopen.demonii.com%3A1337&amp;tr=udp%3A%2F%2Ftracker.coppersurfer.tk%3A6969&amp;tr=udp%3A%2F%2Fexodus.desync.com%3A6969","seeders":1,"leechers":0,"uploader":"IAmsoICan","files":1,"time":1374446017,"description":"Rating \t 5.8 / 10\nReleased\t2013\nGenre\tAction, Sci-Fi, Thriller\nActors\tLaurence Fishburne, Kevin Zegers, Bill Paxton\nPlot\tForced underground by the next ice age, a struggling outpost of survivors must fight to preserve humanity against a threat even more savage than nature.\n\n\nSource - The.Colony.2013.NTSC.DVDR-MASTER (Thumbs Up + Respect)\n\nNOTES - Enjoy.  Grabbed the DVDR Source and decided to do an SSDD HQ version, decided on 1/2 DVD size with nice 5.1 audio :)\n\nGeneral\nComplete name                            : The Colony 2013 DVDRip 6CH AAC x264-SSDD (HQ).mp4\nFormat                                   : MPEG-4\nFormat profile                           : Base Media\nCodec ID                                 : isom\nFile size                                : 2.20 GiB\nDuration                                 : 1h 27mn\nOverall bit rate mode                    : Variable\nOverall bit rate                         : 3 613 Kbps\n\nVideo\nID                                       : 1\nFormat                                   : AVC\nFormat/Info                              : Advanced Video Codec\nFormat profile                           : &lt;a class=&quot;__cf_email__&quot; href=&quot;/cdn-cgi/l/email-protection&quot; data-cfemail=&quot;6028090708202c544e51&quot;&gt;[email&amp;#160;protected]&lt;/a&gt;&lt;script cf-hash='f9e31' type=&quot;text/javascript&quot;&gt;\n/* &lt;![CDATA[ */!function(){try{var t=&quot;currentScript&quot;in document?document.currentScript:function(){for(var t=document.getElementsByTagName(&quot;script&quot;),e=t.length;e--;)if(t[e].getAttribute(&quot;cf-hash&quot;))return t[e]}();if(t&amp;&amp;t.previousSibling){var e,r,n,i,c=t.previousSibling,a=c.getAttribute(&quot;data-cfemail&quot;);if(a){for(e=&quot;&quot;,r=parseInt(a.substr(0,2),16),n=2;a.length-n;n+=2)i=parseInt(a.substr(n,2),16)^r,e+=String.fromCharCode(i);e=document.createTextNode(e),c.parentNode.replaceChild(e,c)}}}catch(u){}}();/* ]]&gt; */&lt;/script&gt;\nFormat settings, CABAC                   : Yes\nFormat settings, ReFrames                : 3 frames\nCodec ID                                 : avc1\nCodec ID/Info                            : Advanced Video Coding\nDuration                                 : 1h 27mn\nBit rate                                 : 3 290 Kbps\nMaximum bit rate                         : 8 085 Kbps\nWidth                                    : 720 pixels\nHeight                                   : 400 pixels\nDisplay aspect ratio                     : 16:9\nFrame rate mode                          : Constant\nFrame rate                               : 29.970 fps\nColor space                              : YUV\nChroma subsampling                       : 4:2:0\nBit depth                                : 8 bits\nScan type                                : Progressive\nBits/(Pixel*Frame)                       : 0.381\nStream size                              : 2.00 GiB (91%)\nWriting library                          : x264 core 133 r2334 a3ac64b\n\nAudio\nID                                       : 2\nFormat                                   : AAC\nFormat/Info                              : Advanced Audio Codec\nFormat profile                           : LC\nCodec ID                                 : 40\nDuration                                 : 1h 27mn\nBit rate mode                            : Variable\nBit rate                                 : 320 Kbps\nMaximum bit rate                         : 343 Kbps\nChannel(s)                               : 6 channels\nChannel positions                        : Front: L C R, Side: L R, LFE\nSampling rate                            : 48.0 KHz\nCompression mode                         : Lossy\nStream size                              : 199 MiB (9%)","torrent":{"xt":"urn:btih:23f0083ec92174f5e36eca39febf3a7b160e602b","amp;dn":"The+Colony+2013+DVDRip+6CH+AAC+x264-SSDD+%28HQ%29","amp;tr":["udp%3A%2F%2Ftracker.openbittorrent.com%3A80","udp%3A%2F%2Fopen.demonii.com%3A1337","udp%3A%2F%2Ftracker.coppersurfer.tk%3A6969","udp%3A%2F%2Fexodus.desync.com%3A6969"],"infoHash":"23f0083ec92174f5e36eca39febf3a7b160e602b","infoHashBuffer":{"type":"Buffer","data":[35,240,8,62,201,33,116,245,227,110,202,57,254,191,58,123,22,14,96,43]},"announce":[],"urlList":[]}}